<svg xmlns="http://www.w3.org/2000/svg" width="10.816" height="16.224" viewBox="0 0 10.816 16.224">
  <g id="download" transform="translate(-85.334)">
    <g id="Group_85" data-name="Group 85" transform="translate(85.334)">
      <g id="Group_84" data-name="Group 84">
        <path id="Path_24" data-name="Path 24" d="M90.264,13.322h0c.016.016.032.03.049.044l.024.018.029.021.03.018.027.016.031.015.029.014.03.011.032.011.031.008.033.008.036.005.03,0a.68.68,0,0,0,.133,0l.03,0,.036-.005.033-.008.031-.008.032-.011.03-.011.029-.014.031-.015.027-.016.029-.018.029-.021.024-.018c.017-.014.034-.029.049-.044h0L95.952,8.59A.676.676,0,0,0,95,7.634l-3.578,3.578V.676a.676.676,0,1,0-1.352,0V11.212L86.488,7.634a.676.676,0,0,0-.956.956Z" transform="translate(-85.334)" fill="#fff"/>
        <path id="Path_25" data-name="Path 25" d="M95.474,469.333H86.01a.676.676,0,0,0,0,1.352h9.464a.676.676,0,0,0,0-1.352Z" transform="translate(-85.334 -454.461)" fill="#fff"/>
      </g>
    </g>
  </g>
</svg>
